<?xml version="1.0" encoding="UTF-8" standalone="no"?>
<svg version="1.1" xmlns="http://www.w3.org/2000/svg" width="16" height="16"
     viewBox="0 0 16 16">
    <g id="favicon">
        <rect id="background"
              style="fill:#5565c5;fill-opacity:1;stroke:#5565c5;stroke-opacity:1;stroke-width:0"
              x="1.5"
              y="4.5"
              width="13"
              height="11"/>
        <g id="calendar-check" style="fill:#e2e1f1;fill-opacity:1;stroke:#e2e1f1;stroke-opacity:1" transform="matrix(0.94124249,0,0,0.94111039,0.47006011,0.47111691)">
            <path id="checkmark"
                  d="M10.854 7.146a.5.5 0 0 1 0 .708l-3 3a.5.5 0 0 1-.708 0l-1.5-1.5a.5.5 0 1 1 .708-.708L7.5 9.793l2.646-2.647a.5.5 0 0 1 .708 0z"/>
            <path id="calendar"
                  d="M3.5 0a.5.5 0 0 1 .5.5V1h8V.5a.5.5 0 0 1 1 0V1h1a2 2 0 0 1 2 2v11a2 2 0 0 1-2 2H2a2 2 0 0 1-2-2V3a2 2 0 0 1 2-2h1V.5a.5.5 0 0 1 .5-.5zM1 4v10a1 1 0 0 0 1 1h12a1 1 0 0 0 1-1V4H1z"/>
        </g>
    </g>
</svg>
