<svg xmlns="http://www.w3.org/2000/svg" viewBox="0 0 16 16">
    <symbol id="caret-up" viewBox="0 0 16 16">
        <path d="M3.204 11h9.592L8 5.519 3.204 11zm-.753-.659 4.796-5.48a1 1 0 0 1 1.506 0l4.796 5.48c.566.647.106 1.659-.753 1.659H3.204a1 1 0 0 1-.753-1.659z"/>
    </symbol>
    <symbol id="plus" viewBox="0 0 16 16">
        <path d="M8 4a.5.5 0 0 1 .5.5v3h3a.5.5 0 0 1 0 1h-3v3a.5.5 0 0 1-1 0v-3h-3a.5.5 0 0 1 0-1h3v-3A.5.5 0 0 1 8 4z"/>
    </symbol>
    <symbol id="dash" viewBox="0 0 16 16">
        <path d="M4 8a.5.5 0 0 1 .5-.5h7a.5.5 0 0 1 0 1h-7A.5.5 0 0 1 4 8z"/>
    </symbol>
    <symbol id="calendar-check" viewBox="0 0 17 16">
        <path d="M10.854 7.146a.5.5 0 0 1 0 .708l-3 3a.5.5 0 0 1-.708 0l-1.5-1.5a.5.5 0 1 1 .708-.708L7.5 9.793l2.646-2.647a.5.5 0 0 1 .708 0z"/>
        <path d="M3.5 0a.5.5 0 0 1 .5.5V1h8V.5a.5.5 0 0 1 1 0V1h1a2 2 0 0 1 2 2v11a2 2 0 0 1-2 2H2a2 2 0 0 1-2-2V3a2 2 0 0 1 2-2h1V.5a.5.5 0 0 1 .5-.5zM1 4v10a1 1 0 0 0 1 1h12a1 1 0 0 0 1-1V4H1z"/>
    </symbol>
</svg>
